<svg xmlns="http://www.w3.org/2000/svg" viewBox="0 0 16 16">
    <g class="icon-color">
        <path d="M12.0275,12.0471617 L14.01375,12.0471617 L14.01375,5.69180396 L11.7759375,2.7097681 L10.3714375,4.58141121 L12.0275,6.78828766 L12.0275,12.0471617 L12.0275,12.0471617 Z M14.019,13.3740194 L7.09075,13.3740194 L5.434625,11.1672263 L6.1369375,10.2314047 L7.50475,12.0541579 L10.319,12.0541579 L7.5466875,8.35276541 L8.2541875,7.40994768 L11.0265,11.1044273 L11.0265,7.35397829 L9.6639375,5.53822129 L10.3609375,4.60931262 L6.9178125,0 L0,0 L1.981,2.63988964 L1.981,2.64688582 L6.08975,2.64688582 L7.5414375,4.58141121 L5.4189375,7.4098644 L3.96725,5.47533901 L3.96725,3.97382681 L1.981,3.97382681 L1.981,6.5718227 L5.4189375,11.1532339 L4.019625,13.0178808 L6.2574375,16 L16,16 L14.019,13.3740194 Z"/>
    </g>
</svg>